<svg xmlns="http://www.w3.org/2000/svg" xml:space="preserve" style="shape-rendering:geometricPrecision;text-rendering:geometricPrecision;image-rendering:optimizeQuality;fill-rule:evenodd;clip-rule:evenodd" viewBox="0 0 11853.32 3386.66"><path d="M7484.52 897.45v194.73c-310 0-575.73 342.47-575.73 651.93 0 211.33 56.85 400.7 184.02 527.17 57.54 57.23 105.69 100.51 182.65 139.09 430.21 215.66 894.86-150.09 894.86-598.52 0-185.64-31.14-310.52-125.16-450.57-82.84-123.4-340.51-336.65-340.51-159.03 0 50.13 111.37 35.76 240.89 207.85 148.5 197.3 151.48 485.69 24.33 700.83-152.77 258.52-497.26 349.94-764.7 115.73-19.26-16.86-14.46-15.84-32.06-35.67-214.25-241.36-207.72-617.78 21.43-846.93 58.32-58.32 97.2-89.36 183.24-121.55 47.04-17.59 73.22-16.02 129.9-22.5 106.41-12.18 86.91-19.5 86.91-226.36 336.09 0 685.8 386 685.8 762 0 153.87-2.14 252.52-70.5 395.17l-64.87 121.39c-12.24 18.34-22.73 36.43-37.39 55.74-16.11 21.24-24.72 27.8-42.48 50.66-154.92 199.46-450.7 284.76-711.19 218.79-62.57-15.85-86.33-31.44-137.65-57.08-258.73-129.24-426.05-433.37-426.05-733.87 0-188.64 62.66-363.17 140.37-477.69 153.49-226.19 316.82-243.76 316.82-309.71 0-32.36-25.06-50.8-59.26-50.8-73.18 0-230.33 152.87-281.4 209.67-144.17 160.37-226.6 407.06-226.6 653.93 0 260.95 147.62 568.43 346.96 719.83 306.71 232.95 703.99 241.97 1007.8 8.39 66.02-50.75 107.97-90.83 157.35-155.92 17.15-22.61 28.56-42.87 44.08-65.98 181.5-270.19 205.5-655.36 63.87-949.52-28.07-58.31-48.89-93.43-84.14-144.46-96.97-140.39-221.31-240.1-379.5-306.3-60.83-25.45-352.09-109.86-352.09-20.44zM667.45 2693.79l41.33-37.71c17.27-20.9 18.06-25.89 38.36-46.3l80.57-88.76c18.12-19.47 19.76-27.3 37.94-46.73l317.41-359.92c132.24-136.14 91.86-141.33 163.14-124.72-21.18 40.02-43.83 61.26-71.44 97.89L976.3 2474.87c-28.53 34.94-48.58 66.17-76.85 100.95-39.97 49.19-32.55 46.34-97.45 71.89-30.24 11.9-101.46 32.96-124.67 53.13l-9.88-7.05zm331.62-128.42 213.62-277.44c19.3-23.36 32.78-42.55 51.24-67.29 31.76-42.57 140.87-188.14 166.93-205.59 146.57 34.14 396.36 123.02 558.8 160.86l-56.77 27.89c-24.16 9.44-37.61 15.56-60.77 23.9-41.39 14.91-78.44 29.96-121.95 47.38-63.93 25.58-714.36 287.24-751.1 290.29zm533.39-592.66c69.56 1.55 680.43 160.87 753.54 160.87-2.82 33.83.57 24.94-27.4 40.33-123.48 67.91-459.13 206.09-618.88 287.05l-190.74 88.67c-99.63 40.34-634.66 301.86-678.51 312.08 32.49-48.52 74.66-96.8 109.85-144.14 41.36-55.64 99.15-66.31 168.32-94.15 124.37-50.06 248.7-97.64 376.13-148.8 58.36-23.43 706.83-286.55 751.16-290.24v-16.94c-42.88-3.56-113.74-31.59-159.08-44.12l-473.66-144.41c-1.48-.7-4.24-2.45-5.41-3.05-1.17-.59-3.62-1.97-5.32-3.15zm-25.4-8.46c9-9 32.12 13.43 9.44 4.39-.2-.07-23.62 9.79-9.44-4.39zm-33.86-8.47c9-9 32.11 13.44 9.43 4.4-.19-.08-23.61 9.78-9.43-4.4zm-67.74-84.67c24.51-46.32 42.24-48.9 72.63-88.24l73.81-87.06c34.44-41.14 118.84-125.45 149.9-171.83 21.35 15.25 7.85-3.35-29.22 46.98l-217.11 283.03c-21.38 27.02-12.68 25.82-50.01 17.12zM2336.8 584.19c0 87.33 5.58 44.4 16.93 93.13l-61.29 74.18c-12.47 13.4-21.77 20.12-33.89 33.84l-609.54 694.32c-28.43 28.4-41.11 49.6-67.73 76.2-13.48 13.46-21.52 20.04-33.14 34.59-13.66 17.11-13.33 19.82-30.4 37.34l-131.28 148.12c-20.79 20.9-50.44 55.54-65.66 78.27L599.25 1695.2c-37.72-9.07-63.13-24.24-99.72-27.29-12.45 23.54-18.51 38.19-25.4 67.74l753.53 220.13-649.88 738.64c-40.27 45.59-125.1 131.93-154.45 175.75 37.73-8.79 55.4-20.26 85.79-32.74l169.42-67.65c28.74-11.48 63.41-28.43 91.93-35.07-7.94 29.72-4.7 14.81-22.48 36.78-64.86 80.14-37.3 80.39-112.89 81.85-178.54 3.45-192.84 270.83 16.83 270.83 98.15 0 118.54-95.06 118.54-177.8 149.72-79.22 439.36-204.58 606.81-282.18 69.58-32.24 138.84-68.8 206.09-98.7l716.84-333.27c50.28-13.03 18.85 36.82 138.19 36.82 139.32 0 189.92-270.93-33.87-270.93-23.78 0-45.33 12.21-61.42 23.25-26.08 17.9-23.79 20-40.18 44.48l-787.4-169.33c83.31-124.41 444.78-579.34 558.71-728.22l224.98-291.48c38.45-51.11 79.75-97.87 113.78-148.69 257.42 59.97 235.49-262.46 76.2-262.46-89.01 0-152.4 47.72-152.4 118.53zm1430.86 304.8c-4.42 18.98-8.47 19.46-8.47 42.33v1744.12c0 22.87 4.05 23.35 8.47 42.33 137.74 32.09 101.6-64.04 101.6-338.66V1134.52c22.29 16.33 453.8 727.6 501.18 802.68 42.73 67.71 77.55 132.34 121.92 199.81l248.97 402.96c40.24 60.84 94.69 186.27 143.93 186.27 137.86 0-14.39-184.25-76.59-287.48l-500.8-811.52c-25.66-39.75-44.64-74.91-71.11-115.16l-355.28-576.05c-31.9-54.48-47.13-80.11-113.82-47.04zm1066.8 1083.72-506.38-797.48c-14.81-23.1-23.15-38.67-38.92-62.68-17.23-26.21-60.76-113.5-89.7-113.5-140.28 0-24.66 144.14 21.96 215.1 168.6 256.61 333.4 543 499.54 795.86 34.98 53.24 65.64 102.52 98.09 155.91 17.48 28.79 25.19 53.59 68.69 57.15 40.93 3.35 56.79-26.19 56.79-72.56V939.79c0-36.24-26.1-67.74-59.27-67.74-77.5 0-50.8 160.64-50.8 237.07v863.59zm3809.99-584.19c0 138.82 18.03 253.21 137.94 353.12 101.99 84.99 139.37 94.63 254.25 152.15 97.84 48.99 331.79 139.14 405.91 203.69 59.26 51.6 57.03 51.72 57.03 154.63 51.17 34.26 41.94 28.86 93.14 16.93 110.9-231.13-270.31-371.33-425.78-437.81-25.32-10.83-37.53-19.47-62.84-30.3-67.03-28.65-135.09-60.24-193.68-102.65-114.73-83.04-155.9-140.91-155.9-284.36 0-52.54 12.82-83.46 37.06-115.34 135.5-178.19 691.56-157.95 733.42 115.43 8.76 57.21-12.28 126.91 59.25 126.91 36 0 59.27-26.31 59.27-59.27 0-491.04-770.37-497.91-944.84-242.1-19.48 28.56-54.23 105.88-54.23 148.97zm1591.73 0c0 138.82 18.03 253.21 137.94 353.12 148.8 123.99 247.96 139.61 395.49 214.11 56.91 28.73 225.37 107.5 264.67 141.73 59.26 51.6 57.03 51.72 57.03 154.63 51.17 34.26 41.94 28.86 93.14 16.93 110.9-231.13-270.31-371.33-425.78-437.81-25.32-10.83-37.53-19.47-62.84-30.3-28.99-12.39-45.21-18.82-70.22-31.38-117.66-59.08-279.36-154.9-279.36-313.3 0-103.95 9.73-165.01 121.07-226.06 145.35-79.71 609.31-78.04 649.41 183.82 8.77 57.21-12.28 126.91 59.25 126.91 36 0 59.27-26.31 59.27-59.27 0-491.04-770.37-497.91-944.84-242.1-19.48 28.56-54.23 105.88-54.23 148.97zm228.6 0c0 132.67 65.72 195.31 174.29 265.97l198.12 106.68c109.73 54.05 225.44 94.78 342.5 165.5 109.12 65.93 174.09 109.12 174.09 240.77 0 87.61-72.83 154.94-131.58 190.16-142.82 85.62-475.02 91.29-615.75-69.36-26.9-30.71-33.41-86.93-82.4-86.93-143.03 0 12.12 359.24 483.24 322.38 148.36-11.61 218.3-25.14 311.51-94.89 171.16-128.08 217.79-379.6-2.39-545.71-78.99-59.6-180.32-103.6-273.01-150.33-114.13-57.53-390.9-157.71-457.22-279.38-17.29-31.72-11.33-54.93-11.33-98.73-69.26-46.38-110.07-22.68-110.07 33.87zm-1591.73 0c0 132.67 65.72 195.31 174.29 265.97l198.12 106.68c148.06 72.93 343.2 135.67 459.62 251.58 100.5 100.05 71.03 257.53-74.61 344.85-142.82 85.62-475.02 91.29-615.75-69.36-26.9-30.71-33.41-86.93-82.4-86.93-143.03 0 12.12 359.24 483.24 322.38 148.36-11.61 218.3-25.14 311.51-94.89 171.16-128.08 217.79-379.6-2.39-545.71-78.99-59.6-180.32-103.6-273.01-150.33-114.13-57.53-390.9-157.71-457.22-279.38-17.3-31.72-11.33-54.93-11.33-98.73-69.26-46.38-110.07-22.68-110.07 33.87zm-3437.46-279.4c-4.42 18.99-8.47 19.46-8.47 42.33v1507.06c0 83.86 110.07 77.85 110.07 0V1202.25h778.93c40.54 0 81.67-110.07-33.86-110.07h-778.94c-30.08 0-47.88 7.1-67.73 16.94zM3056.46 914.39c0 148.72-12.45 841.54 8.47 931.32 71.06 16.56 154.65 8.47 228.6 8.47v677.33c0 54.18 110.06 63.62 110.06-25.4v-694.26c0-91.81-113.5-67.74-237.06-67.74V939.79c0-93.29-110.07-79.77-110.07-25.4zm2006.6 169.33v1583.25c0 81.27 110.06 80 110.06 0V1083.72c0-86.28-110.06-86.28-110.06 0zm601.13 821.26c0 136.35-11.98 716.55 8.47 804.33 53.6 12.49 31.06 12.49 84.66 0 9.83-20.48 16.94-37.04 16.94-67.74v-685.79h558.8c54.18 0 63.62-110.07-25.4-110.07h-575.74c-39.07 0-67.73 18.75-67.73 59.27zm8.47-601.13c-15.58 66.88-15.58 347.99 0 414.86 87.19 20.32 637.45 8.47 770.46 8.47 54.18 0 63.63-110.07-25.4-110.07h-643.46v-262.46c0-67.12-54.87-73.97-101.6-50.8zm3522.12-372.53c0 56.25 53.52 55.96 109.42 59.92 42.51 3.01 109.69 20.11 144.72 33.07 204.96 75.83 310.42 242.34 312.56 466.37.98 102.42 110.64 90.65 110.64-34.43 0-279.4-194.2-489.6-438.43-552.17-58.14-14.89-238.91-70.43-238.91 27.24zm1591.73 0c0 56.25 53.52 55.96 109.42 59.92 42.51 3.01 109.69 20.11 144.72 33.07 204.96 75.83 310.42 242.34 312.56 466.37.98 102.42 110.64 90.65 110.64-34.43 0-279.4-194.2-489.6-438.43-552.17-58.14-14.89-238.91-70.43-238.91 27.24zm42.34 1794.92c62.24 0 59.26-39.99 59.26-67.73 0-94.41-231.6 37.15-471.6-256.53-118.75-145.3-68.53-270.42-104.13-344.6l-50.8-8.47c-79.78 0-38.29 194.64-20.31 248.91 41.56 125.45 109.93 222.32 210.09 297.91 91.73 69.24 255.85 130.51 377.49 130.51zm-1591.73 0c62.24 0 59.26-39.99 59.26-67.73 0-94.41-231.6 37.15-471.6-256.53-23.38-28.6-40.45-60.05-55.93-96.47-60.11-141.48-9.08-166.62-48.2-248.13l-50.8-8.47c-79.78 0-38.29 194.64-20.31 248.91 56.86 171.65 160.11 283.56 316.5 360.84 57.66 28.49 185.57 67.58 271.08 67.58zm-5240.86-965.19c-16.51 70.88-16.51 750.37 0 821.26 39.57 18.99 53.56 18.99 93.13 0 16.52-70.89 16.52-750.38 0-821.26-38.96-18.7-54.12-19.35-93.13 0zm1659.46-846.66c0 39.52 19.75 59.26 59.27 59.26h728.13c81.27 0 80-110.06 0-110.06h-745.06c-24.03 0-42.34 29.22-42.34 50.8zM3056.46 2040.44c0 123.81-11.69 582.33 8.47 668.87 51.8 12.07 41.33 12.07 93.13 0 20.16-86.54 8.47-545.06 8.47-668.87 0-81.26-110.07-79.99-110.07 0zm245.53-965.19c-19.39 83.24-8.46 400.48-8.46 508 0 56.37 110.06 57.55 110.06-25.4 0-94.01 15.64-414.73-16.93-482.6-26.77-6.23-43.6-15.94-84.67 0zm1811.87-203.2c-12.93 2.65-62.32 4.23-55.74 65.64 12.33 115.08 190.53 12.04 97.09-57.04-30.69-22.69-41.33-8.6-41.35-8.6zm5444.06 1244.59c0-90.78-111.74-82.92-115.12-6.27-3.21 72.77 115.12 89.38 115.12 6.27zm-1591.74 0c0-90.78-111.73-82.92-115.11-6.27-3.21 72.77 115.11 89.38 115.11 6.27zM7332.12 1007.52c59.54 0 82.56-118.53-8.47-118.53-83.56 0-65.73 118.53 8.47 118.53zm-872.06 84.66h-16.94c-79.43 0-66.04 107.25 2.36 115.08 78.01 8.94 76.1-115.08 14.58-115.08z"/></svg>